<svg width="414" height="896" viewBox="0 0 414 896" fill="none" xmlns="http://www.w3.org/2000/svg">
<path d="M15.7 329.638C16.52 327.415 24.21 330.507 27.71 328.667C31.21 326.801 36.35 327.542 40.13 329.178C43.92 330.788 50.2501 324.27 56.0601 324.756C61.8801 325.242 71.17 326.571 70.92 329.229C70.64 331.887 68.35 336.182 61.34 335.082C54.33 334.009 50.13 335.16 48.38 336.412C46.63 337.664 35.95 339.096 29.62 336.31C23.25 333.549 15.96 334.06 15.7 329.638Z" fill="white" stroke="black" stroke-width="0.381506" stroke-miterlimit="10" stroke-linecap="round" stroke-linejoin="round"/>
<g style="mix-blend-mode:multiply">
<path d="M15.05 329.637C15.33 334.033 22.62 333.548 28.95 336.333C35.3 339.12 45.95 337.688 47.71 336.436C49.46 335.183 53.64 334.007 60.67 335.107C67.67 336.18 69.99 331.886 70.24 329.253C65.85 331.835 56.37 328.87 52.05 330.813C47.73 332.755 44.88 334.187 37.71 332.244C30.54 330.301 27.99 332.423 26.45 332.423C24.91 332.423 15.05 329.637 15.05 329.637Z" fill="#E3EEFE"/>
</g>
<path d="M320.79 246.544V237.085" stroke="black" stroke-width="0.383955" stroke-miterlimit="10" stroke-linecap="round" stroke-linejoin="round"/>
<path d="M330.04 195.774C331.04 195.578 332.08 195.472 333.13 195.472C343.23 195.472 351.42 204.976 351.42 216.698C351.42 228.42 343.23 237.924 333.13 237.924L327.3 238.378C316.98 238.378 308.61 229.002 308.61 217.439C308.61 208.949 313.11 201.647 319.59 198.355L330.04 195.774Z" fill="#039503" stroke="black" stroke-width="0.383955" stroke-miterlimit="10" stroke-linecap="round" stroke-linejoin="round"/>
<path d="M320.01 236.26C320.01 236.26 320.95 233.937 324.06 234.285C324.06 234.285 327.23 236.434 330.02 236.487C330.02 236.487 330.06 237.297 328.42 237.842C326.77 238.379 321.51 237.183 320.01 236.26Z" fill="#C3F53C" stroke="black" stroke-width="0.383955" stroke-miterlimit="10" stroke-linecap="round" stroke-linejoin="round"/>
<path d="M333.19 236.26C342.47 236.26 349.99 227.42 349.99 216.516C349.99 205.613 342.47 196.774 333.19 196.774C323.91 196.774 316.39 205.613 316.39 216.516C316.39 227.42 323.91 236.26 333.19 236.26Z" stroke="black" stroke-width="0.383955" stroke-miterlimit="10" stroke-linecap="round" stroke-linejoin="round"/>
<path d="M323.21 218.735L340.44 228.383C340.44 228.383 344.92 226.544 346.36 221.716C347.81 216.888 346.28 215.133 345.8 214.784C345.8 214.784 346.45 207.331 341.88 206.801C341.88 206.801 340.28 201.096 336.51 202.503C336.51 202.503 333.31 198.643 331.14 201.799C331.14 201.799 328.5 200.392 326.9 203.207C326.9 203.207 319.52 206.801 323.21 218.735Z" fill="#C3F53C" stroke="black" stroke-width="0.383955" stroke-miterlimit="10" stroke-linecap="round" stroke-linejoin="round"/>
<path d="M320.8 246.543C320.8 246.543 323.61 245.174 326.47 245.174C327.35 245.212 328.26 245.287 329.2 245.393C333.52 245.9 337.29 247.058 340.43 248.39C340.42 250.055 340.42 251.72 340.41 253.384C340.41 253.482 340.39 253.709 340.26 253.937C340.14 254.141 339.98 254.247 339.9 254.3C338.94 254.761 337.97 255.223 337.01 255.684C336.7 255.722 336.35 255.753 335.97 255.753C335.44 255.753 334.97 255.699 334.57 255.624L322.18 253.301C322.18 253.301 321.23 252.96 320.79 252.067V246.543H320.8Z" fill="#337F59" stroke="black" stroke-width="0.383955" stroke-miterlimit="10" stroke-linecap="round" stroke-linejoin="round"/>
<path d="M322.18 252.234L325.94 251.538" stroke="black" stroke-width="0.383955" stroke-miterlimit="10" stroke-linecap="round" stroke-linejoin="round"/>
<path d="M328.02 251.538C330.23 251.833 332.53 252.196 334.92 252.658C336.44 252.953 337.93 253.263 339.37 253.596" stroke="black" stroke-width="0.383955" stroke-miterlimit="10" stroke-linecap="round" stroke-linejoin="round"/>
<path d="M331.47 251.81C331.47 242.328 331.47 232.839 331.47 223.357C331.47 223.357 337.93 213.497 336.51 202.501" stroke="black" stroke-width="0.383955" stroke-miterlimit="10" stroke-linecap="round" stroke-linejoin="round"/>
<path d="M335.88 252.84C335.88 243.835 335.88 234.83 335.88 225.825C335.88 225.825 342.54 219.544 341.87 206.793" stroke="black" stroke-width="0.383955" stroke-miterlimit="10" stroke-linecap="round" stroke-linejoin="round"/>
<path d="M340.43 228.383V248.398" stroke="black" stroke-width="0.383955" stroke-miterlimit="10" stroke-linecap="round" stroke-linejoin="round"/>
<path d="M327.18 204.167C327.18 204.167 327.49 215.056 323.22 218.734V245.666" stroke="black" stroke-width="0.383955" stroke-miterlimit="10" stroke-linecap="round" stroke-linejoin="round"/>
<path d="M331.14 201.798C331.14 201.798 333.51 211.999 327.18 220.951V251.068" stroke="black" stroke-width="0.383955" stroke-miterlimit="10" stroke-linecap="round" stroke-linejoin="round"/>
<path d="M345.8 214.784C345.8 214.784 345.38 223.729 339.53 227.884" stroke="black" stroke-width="0.383955" stroke-miterlimit="10" stroke-linecap="round" stroke-linejoin="round"/>
<path d="M325.2 238.257V245.174" stroke="black" stroke-width="0.383955" stroke-miterlimit="10" stroke-linecap="round" stroke-linejoin="round"/>
<path d="M329.38 238.227V245.401" stroke="black" stroke-width="0.383955" stroke-miterlimit="10" stroke-linecap="round" stroke-linejoin="round"/>
<path d="M334.27 237.894V246.333" stroke="black" stroke-width="0.383955" stroke-miterlimit="10" stroke-linecap="round" stroke-linejoin="round"/>
<path d="M337.33 237.373V247.225" stroke="black" stroke-width="0.383955" stroke-miterlimit="10" stroke-linecap="round" stroke-linejoin="round"/>
<g style="mix-blend-mode:multiply">
<path d="M348.82 227.641C348.44 227.384 348.08 227.119 347.7 226.861C347.42 227.376 342.34 236.267 333.19 236.26C326.85 236.252 322.6 231.969 321.83 231.16C318.72 227.906 317.58 224.183 317.16 222.472C315.3 223.456 313.16 224.303 310.74 224.803C310.44 224.864 310.14 224.917 309.85 224.969C310.61 227.119 312.41 231.228 316.33 234.413C317.92 235.715 319.49 236.547 320.8 237.093C321.91 237.554 323.31 238.001 324.96 238.235C325.81 238.356 326.6 238.402 327.31 238.402C328.69 238.311 330.05 238.22 331.43 238.129C332.47 238.091 333.61 238.001 334.81 237.834C335.71 237.713 336.54 237.554 337.33 237.388C339.24 236.812 342.65 235.45 345.72 232.113C347.15 230.547 348.14 228.958 348.82 227.641Z" fill="#DBDBDB"/>
</g>
<g style="mix-blend-mode:multiply">
<path d="M339.37 253.589C336.93 252.968 334.91 252.582 333.48 252.34C331.2 251.954 328.02 251.53 328.02 251.53C328.02 251.53 327.46 251.417 326.88 251.425C326.38 251.425 325.87 251.515 325.87 251.515L321.01 252.423L321.94 253.263C321.94 253.263 326.58 254.126 335.22 255.73C335.82 255.723 336.42 255.707 337.01 255.7C337.98 255.238 338.95 254.777 339.91 254.315C339.92 254.262 339.95 254.08 339.86 253.907C339.71 253.604 339.38 253.589 339.37 253.589Z" fill="#DBDBDB"/>
</g>
<path d="M75.9001 301.967C75.9001 301.967 74.89 300.423 76.5 299.099C78.11 297.775 87.79 290.055 101.08 288.731C101.08 288.731 101.89 288.845 102.09 289.504C102.09 289.504 102.59 288.731 103.7 288.731C103.7 288.731 116.19 294.687 122.02 303.957C122.02 303.957 122.02 304.949 120.92 304.949C120.92 304.949 115.58 323.48 101.28 336.382C101.28 336.382 105.41 337.488 106.82 339.364C106.82 339.364 101.78 352.713 98.8001 358.335C98.8001 358.335 95.34 353.591 90.6 339.364C90.6 339.364 93.73 336.829 96.35 336.163C96.35 336.163 82.7501 323.533 75.9001 301.967Z" fill="#337F59" stroke="black" stroke-width="0.383955" stroke-miterlimit="10" stroke-linecap="round" stroke-linejoin="round"/>
<path d="M78.88 309.935C78.88 309.935 83.63 320.106 86.65 324.23L86.96 323.534C86.96 323.534 86.96 322.838 87.76 322.248C87.76 322.248 92.7901 318.706 98.8101 317.722C98.8101 317.722 99.38 317.624 100.4 318.214L101.05 318.373C101.52 318.101 101.99 318.116 101.99 318.116C101.99 318.116 107.76 321.142 110.07 323.534C110.07 323.534 110.76 324.116 110.79 324.76H111.27C111.27 324.76 114.26 320.575 118.15 312.259C118.58 311.328 117.15 310.435 117.15 310.435C110.59 302.761 103.31 300.696 103.31 300.696C102.49 300.597 101.58 300.991 101.58 300.991C100.75 300.204 99.63 300.302 99.63 300.302C90.83 302.172 81.6599 307.09 80.3199 307.975C78.9699 308.861 78.88 309.935 78.88 309.935Z" fill="#68DD68" stroke="black" stroke-width="0.383955" stroke-miterlimit="10" stroke-linecap="round" stroke-linejoin="round"/>
<path d="M101.58 290.766C101.58 290.766 87.68 291.985 76.73 301.762" stroke="black" stroke-width="0.383955" stroke-miterlimit="10" stroke-linecap="round" stroke-linejoin="round"/>
<path d="M103.3 290.766C103.3 290.766 110.54 293.022 120.91 304.948C120.91 304.948 114.62 322.859 106.81 339.364" stroke="black" stroke-width="0.383955" stroke-miterlimit="10" stroke-linecap="round" stroke-linejoin="round"/>
<path d="M101.99 291.766C101.99 291.766 100.91 320.241 99.71 335.861C99.71 335.861 99.4699 352.221 98.8199 358.335" stroke="black" stroke-width="0.383955" stroke-miterlimit="10" stroke-linecap="round" stroke-linejoin="round"/>
<path d="M96.35 336.163C96.35 336.163 98.63 335.634 99.71 335.861L101.28 336.383" stroke="black" stroke-width="0.383955" stroke-miterlimit="10" stroke-linecap="round" stroke-linejoin="round"/>
<path d="M93.02 346.137C93.02 346.137 95.61 344.299 99.51 344.359C99.51 344.359 101 344.344 103.96 346.652" stroke="black" stroke-width="0.383955" stroke-miterlimit="10" stroke-linecap="round" stroke-linejoin="round"/>
<path d="M75.91 301.966C75.91 301.966 83.69 324.32 90.61 339.364" stroke="black" stroke-width="0.383955" stroke-miterlimit="10" stroke-linecap="round" stroke-linejoin="round"/>
<g style="mix-blend-mode:multiply">
<path d="M115.93 316.875C114.11 319.5 112.01 322.262 109.57 325.077C108.14 326.742 106.71 328.271 105.33 329.686C104.91 329.255 104.3 328.725 103.49 328.263C102.49 327.704 101.57 327.469 100.94 327.37C101.41 323.375 101.44 320.189 101.39 317.972C101.33 315.891 101.12 311.698 101.12 311.698C99.91 320.371 99.6499 321.733 99.1899 324.094C98.9399 325.373 98.73 326.387 98.61 326.939C97.66 326.992 96.48 327.143 95.15 327.53C93.92 327.893 92.89 328.362 92.08 328.801C91.32 328.407 90.44 327.885 89.53 327.181C88.4 326.319 87.52 325.418 86.84 324.631C87.54 325.577 88.25 326.523 88.99 327.477C91.45 330.632 93.91 333.523 96.34 336.164C97.02 335.914 98.24 335.581 99.7 335.861C100.33 335.982 100.86 336.179 101.28 336.383C102.59 335.187 103.92 333.871 105.26 332.41C110.11 327.143 113.52 321.665 115.93 316.875Z" fill="#DBDBDB"/>
</g>
<g style="mix-blend-mode:multiply">
<path d="M105.02 343.996C103.88 346.69 102.45 349.566 100.63 352.509C100.11 353.349 99.58 354.159 99.05 354.924C98.02 353.766 96.92 352.381 95.83 350.762C94.32 348.506 93.21 346.35 92.39 344.48C93.01 346.228 93.72 348.06 94.55 349.951C95.92 353.107 97.3801 355.9 98.8101 358.344C99.5701 356.891 100.33 355.355 101.07 353.751C102.64 350.353 103.94 347.076 105.02 343.996Z" fill="#DBDBDB"/>
</g>
<path d="M325.3 367.257C325.3 367.257 318.18 330.511 281.75 333.832C281.75 333.832 255.67 339.72 258.78 367.257C258.78 367.257 261.57 378.669 258.78 382.702C258.78 382.702 242.73 382.301 237.59 394.394C237.59 394.394 233.54 373.834 208.51 383.104C183.48 392.374 183.12 407.652 183.12 407.652C183.12 407.652 165.08 394.387 149.62 418.171C149.62 418.171 141.86 419.783 138.38 418.171C134.9 416.559 118.34 422.242 130.48 426.457C130.48 426.457 112.48 427.448 115.04 431.073C115.04 431.073 115.7 432.54 120.86 432.609H354.77C354.77 432.609 370.82 428.863 371.65 418.957C372.47 409.052 360.55 407.652 360.55 407.652C360.55 407.652 360.36 405.344 358.7 404.807C358.7 404.807 363.66 393.387 354.28 392.176C354.28 392.176 364.49 382.044 348.76 370.708C333.03 359.373 325.3 367.257 325.3 367.257Z" fill="white" stroke="black" stroke-width="0.383955" stroke-miterlimit="10" stroke-linecap="round" stroke-linejoin="round"/>
<path d="M83.7 346.296C83.7 346.296 81.18 328.921 62.27 327.574C43.36 326.227 36 357.162 49.74 363.072C49.74 363.072 32.56 373.023 55.64 380.015H189.75C189.75 380.015 197.17 377.329 189.75 374.908C182.34 372.486 162.45 373.56 162.45 373.56C162.45 373.56 158.03 370.601 162.94 367.915C167.85 365.229 161.47 355.815 148.94 356.89C136.42 357.964 137.89 368.99 124.88 357.964C124.88 357.964 111.47 342.368 86.5 352.319C86.5 352.326 88.92 345.652 83.7 346.296Z" fill="white" stroke="black" stroke-width="0.383955" stroke-miterlimit="10" stroke-linecap="round" stroke-linejoin="round"/>
<g style="mix-blend-mode:multiply">
<path d="M325.29 367.257C324.37 363.232 322.43 356.898 318.01 350.481C315.04 346.183 311.88 343.156 309.37 341.135C311.28 343.746 313.28 346.864 315.16 350.526C319.09 358.185 321.04 365.426 322.07 370.95C322.57 370.072 323.29 369.036 324.33 368.067C324.66 367.757 324.98 367.492 325.29 367.257Z" fill="#E3EEFE"/>
</g>
<g style="mix-blend-mode:multiply">
<path d="M360.56 407.651C360.54 407.363 360.47 406.659 360.03 405.956C359.56 405.221 358.95 404.912 358.71 404.798C359.35 403.315 359.65 402.013 359.8 401.105C360.01 399.871 360.2 398.729 359.92 397.284C359.8 396.655 359.53 395.361 358.6 394.211C357.05 392.289 354.8 392.176 354.29 392.16C354.97 391.449 356.01 390.185 356.72 388.286C357.19 387.06 357.78 384.851 357.35 382.217C357.05 380.34 356.36 379.062 355.71 377.889C355.01 376.632 353.72 374.657 351.45 372.819C351.84 373.643 354.76 379.947 352.01 385.66C351.24 387.257 350.21 388.414 349.3 389.217C349.43 389.255 350.29 389.557 350.66 390.526C350.97 391.313 350.83 392.244 350.31 392.932C350.59 393.122 354.51 395.853 354.46 400.485C354.44 402.452 353.7 403.958 353.23 404.745C353.43 404.813 355.29 405.471 355.8 407.378C355.99 408.09 355.93 408.718 355.85 409.126C356.32 408.756 357.07 408.248 358.1 407.923C359.11 407.636 359.98 407.621 360.56 407.651Z" fill="#E3EEFE"/>
</g>
<g style="mix-blend-mode:multiply">
<path d="M369.28 411.769C368.18 412.223 366.86 412.964 365.64 414.221C362.1 417.899 362.95 422.424 359.41 425.769C358.59 426.54 357.43 427.35 355.76 427.887C276.96 427.887 198.15 427.887 119.34 427.887C116.64 428.478 114.78 429.461 114.81 430.339C114.83 430.687 115.14 431.338 115.65 431.679C115.81 431.784 116 431.852 116.37 431.974C117 432.178 117.49 432.276 117.59 432.299C118.85 432.549 120.69 432.609 120.87 432.617C198.85 432.617 276.81 432.617 354.79 432.617C357.19 432.004 359.12 431.255 360.49 430.657C362.95 429.575 365.58 428.386 368.14 425.799C369.18 424.747 370.12 423.786 370.83 422.136C371.17 421.349 372.12 419.056 371.53 416.173C371.06 413.88 369.87 412.405 369.28 411.769Z" fill="#E3EEFE"/>
</g>
<g style="mix-blend-mode:multiply">
<path d="M46.13 349.475C45.32 345.6 45.0799 339.115 45.0799 339.115C45.0799 339.115 44.1999 340.644 43.7299 342.467C43.6399 342.793 43.68 342.694 43.42 344.079C43.12 345.668 42.8999 346.735 42.8399 347C42.0399 350.988 43.28 355.036 43.28 355.036C43.66 356.316 44.6599 359.448 47.4599 361.688C48.3399 362.399 49.17 362.831 49.75 363.088C49.98 362.771 50.36 362.324 50.92 361.923C51.53 361.506 52.0899 361.325 52.4599 361.234C48.3699 356.755 46.79 352.608 46.13 349.475Z" fill="#E3EEFE"/>
</g>
<g style="mix-blend-mode:multiply">
<path d="M192.7 378.154C148.59 377.617 104.48 377.08 60.38 376.55C54.67 377.019 49.56 374.803 47.31 370.511C46.81 369.543 46.2299 368.052 46.0899 365.979C44.2499 367.507 43.28 369.763 43.66 371.836C43.85 372.895 44.35 373.682 44.75 374.174C45.98 375.536 47.37 376.672 48.93 377.534C49.77 378.003 50.5699 378.276 51.9699 378.797C53.4699 379.358 54.74 379.751 55.64 380.024C100.34 380.024 145.04 380.024 189.75 380.024C190.38 379.835 191.21 379.479 192.03 378.797C192.28 378.586 192.5 378.366 192.7 378.154Z" fill="#E3EEFE"/>
</g>
<path d="M309.7 434.281C323.73 434.281 335.11 425.015 335.11 413.584C335.11 402.154 323.73 392.888 309.7 392.888C295.68 392.888 284.3 402.154 284.3 413.584C284.3 425.015 295.68 434.281 309.7 434.281Z" fill="#C3F53C" stroke="black" stroke-width="0.383955" stroke-miterlimit="10" stroke-linecap="round" stroke-linejoin="round"/>
<path d="M309.7 392.888C309.7 392.888 291 407.523 309.7 434.281C309.7 434.281 327.47 409.672 309.7 392.888Z" stroke="black" stroke-width="0.383955" stroke-miterlimit="10" stroke-linecap="round" stroke-linejoin="round"/>
<path d="M309.71 434.281C309.71 434.281 290.09 431.088 290.09 413.584C290.09 396.081 309.71 392.888 309.71 392.888C309.71 392.888 330.21 398.298 330.21 413.584C330.21 428.87 309.71 434.281 309.71 434.281Z" stroke="black" stroke-width="0.383955" stroke-miterlimit="10" stroke-linecap="round" stroke-linejoin="round"/>
<path d="M285.65 406.932C285.65 406.932 291.13 398.669 309.5 398.669C327.86 398.669 333.76 406.932 333.76 406.932" stroke="black" stroke-width="0.383955" stroke-miterlimit="10" stroke-linecap="round" stroke-linejoin="round"/>
<path d="M284.31 413.585C284.31 413.585 290.46 407.667 310.16 407.667C329.85 407.667 335.07 414.826 335.07 414.826" stroke="black" stroke-width="0.383955" stroke-miterlimit="10" stroke-linecap="round" stroke-linejoin="round"/>
<path d="M275.81 422.362C275.81 422.362 273.36 420.681 274.79 427.174C276.22 433.667 293.89 466.108 303.39 469.241C303.39 469.241 304.14 470.55 305.68 470.202C305.68 470.202 306.81 471.33 308.2 470.581C308.2 470.581 309.92 471.905 311.47 470.437C311.47 470.437 313.79 471.678 315.61 468.992C315.61 468.992 333.71 452.624 343.48 427.046C343.48 427.046 344.94 421.764 341.88 422.165C341.88 422.165 341.15 410.897 329.18 418.093C329.18 418.093 325.83 402.694 309.09 415.695C309.09 415.695 293.72 403.224 288.02 417.14C288.02 417.133 276.74 411.76 275.81 422.362Z" fill="#669F83" stroke="black" stroke-width="0.383955" stroke-miterlimit="10" stroke-linecap="round" stroke-linejoin="round"/>
<path d="M285.46 448.485C285.46 448.485 285.72 447.327 287.22 446.517C287.22 446.517 289.9 442.371 295.14 443.407C295.14 443.407 300.65 437.717 310.9 441.644C310.9 441.644 317.12 438.489 323.26 443.407C323.26 443.407 328.76 442.9 330.75 446.252C330.75 446.252 332.2 446.684 332.87 447.811C332.87 447.811 329.25 453.835 324.58 459.223C324.58 459.223 324.13 457.846 322.83 457.301C322.83 457.301 321.65 455.689 317.89 456.257C317.89 456.257 314.77 453.577 310.72 455.25C310.72 455.25 302.24 452.761 300.29 456.158C300.29 456.158 295.42 454.932 294.4 457.528C294.4 457.528 292.69 458.118 292.71 459.231C292.7 459.223 289.31 455.099 285.46 448.485Z" fill="#68DD68" stroke="black" stroke-width="0.383955" stroke-miterlimit="10" stroke-linecap="round" stroke-linejoin="round"/>
<path d="M288.13 418.148C288.13 418.148 294.42 450.021 306.54 467.168C306.54 467.168 308.62 468.425 309.71 467.168C309.71 467.168 312.49 451.111 309.51 417.383" stroke="black" stroke-width="0.383955" stroke-miterlimit="10" stroke-linecap="round" stroke-linejoin="round"/>
<path d="M276.02 423.491C276.02 423.491 285.58 448.205 298.58 462.659C298.58 462.659 301.5 465.966 303.42 466.965" stroke="black" stroke-width="0.383955" stroke-miterlimit="10" stroke-linecap="round" stroke-linejoin="round"/>
<path d="M329.24 419.094C329.24 419.094 326.43 444.535 311.83 466.964C311.83 466.964 310.51 468.515 309.71 467.176" stroke="black" stroke-width="0.383955" stroke-miterlimit="10" stroke-linecap="round" stroke-linejoin="round"/>
<path d="M304.58 467.873C304.58 467.873 306.33 468.675 307 467.403" stroke="black" stroke-width="0.383955" stroke-miterlimit="10" stroke-linecap="round" stroke-linejoin="round"/>
<path d="M341.67 423.081C341.67 423.081 335.31 446.495 313.53 467.403C313.53 467.403 312.15 468.675 310.98 467.607" stroke="black" stroke-width="0.383955" stroke-miterlimit="10" stroke-linecap="round" stroke-linejoin="round"/>
<path d="M303.38 469.242C303.38 469.242 305.97 470.514 308.64 467.722" stroke="black" stroke-width="0.383955" stroke-miterlimit="10" stroke-linecap="round" stroke-linejoin="round"/>
<path d="M305.67 470.203C305.67 470.203 308.71 469.454 309.38 467.759" stroke="black" stroke-width="0.383955" stroke-miterlimit="10" stroke-linecap="round" stroke-linejoin="round"/>
<path d="M308.2 470.581C308.2 470.581 309.69 469.559 309.72 467.766" stroke="black" stroke-width="0.383955" stroke-miterlimit="10" stroke-linecap="round" stroke-linejoin="round"/>
<path d="M310.32 468.031C310.32 468.031 310.36 469.764 311.46 470.43" stroke="black" stroke-width="0.383955" stroke-miterlimit="10" stroke-linecap="round" stroke-linejoin="round"/>
<path d="M311.27 467.826C311.27 467.826 312.26 470.247 315.6 468.992" stroke="black" stroke-width="0.383955" stroke-miterlimit="10" stroke-linecap="round" stroke-linejoin="round"/>
<g style="mix-blend-mode:multiply">
<path d="M343.24 422.544C343.04 422.34 342.65 422.105 341.87 422.166C341.18 419.91 340.74 418.465 340.74 418.465C337.99 426.313 337.93 426.486 337.91 426.509C336.08 431.692 331.32 445.064 320.95 456.272C319.13 458.231 317.56 459.677 316.7 460.441C320.6 453.819 325.1 444.466 327.95 432.57C329.27 427.061 330.02 421.939 330.41 417.398C331.94 416.823 333.47 416.24 335 415.665C335.31 412.32 334.71 409.747 334.27 408.302C332.77 403.452 329.65 400.667 328.75 399.887C326.83 398.215 323.75 396.338 323.71 396.308C328.24 401.174 330.05 404.435 330.05 404.435C331.4 406.857 332.7 410.572 332.52 416.217C330.26 417.474 329.17 418.079 329.17 418.079L328.15 415.385C325.33 432.525 322.1 442.536 322.1 442.536C320.35 447.947 317.48 455.174 312.5 463.241C312.01 463.196 311.51 463.15 311.02 463.105C311.74 456.158 311.64 451.633 311.4 448.734C311.32 447.826 310.85 442.461 310.85 442.454C309.74 453.812 309.55 455.522 309.2 458.488C308.97 460.501 308.77 462.121 308.66 463.044C308.46 463.15 308.09 463.324 307.61 463.324C307.25 463.324 306.96 463.241 306.77 463.165C304.17 459.162 302.38 455.749 301.26 453.472C298.34 447.501 296.41 441.893 293.64 436.263C293.43 435.832 291.53 431.957 291.52 431.957C291.52 431.957 292.67 436.982 292.87 437.86C293.72 441.56 295.32 448.447 298.65 455.719C299.7 458.004 301.35 461.25 303.82 464.936C303.79 465.019 303.77 465.102 303.73 465.186C303.4 464.921 303.09 464.625 302.8 464.361C301.99 463.635 301.22 462.862 300.48 462.053C298.49 459.866 296.66 457.187 296.66 457.187C288.12 444.579 283.23 432.752 283.23 432.752C283.1 432.427 282.92 431.965 277.58 417.535C277.58 417.535 276.93 418.435 276.88 418.518C276.53 419.01 276.12 420.024 275.8 422.324C275.5 422.181 275.12 422.059 274.81 422.241C273.74 422.892 274.72 426.842 274.92 427.712C275.45 429.861 276.14 431.42 279.02 437.012C280.37 439.638 281.05 440.955 281.76 442.227C283.5 445.405 285.08 447.993 286.31 449.968C286.31 449.968 292.84 460.342 298.48 465.92C298.89 466.321 299.79 467.206 301.16 468.069C302.03 468.613 302.81 468.977 303.37 469.204C303.45 469.355 303.78 469.915 304.44 470.157C305 470.362 305.49 470.225 305.65 470.172C305.81 470.332 306.13 470.619 306.63 470.755C307.39 470.959 308 470.649 308.18 470.551C308.35 470.679 309.16 471.285 310.22 471.065C310.83 470.937 311.25 470.596 311.45 470.407C311.67 470.536 312.13 470.77 312.76 470.77C313.46 470.763 313.96 470.467 314.17 470.324C314.38 470.202 314.64 470.029 314.9 469.779C315.21 469.491 315.43 469.204 315.59 468.962C316 468.575 316.58 468.024 317.26 467.35C318.11 466.51 320.86 463.763 324.56 459.192C329.47 453.131 332.76 447.955 334.14 445.722C335.03 444.293 336.01 442.688 337.22 440.448C340.83 433.789 343.46 427.016 343.46 427.016C343.47 427.046 344.35 423.648 343.24 422.544Z" fill="#DBDBDB"/>
</g>
<g style="mix-blend-mode:multiply">
<path d="M288.01 417.133C287.03 416.225 286.85 416.006 286.85 416.006C286.57 415.658 286.32 415.219 286.07 414.424C285.63 413.077 285.42 412.32 285.25 407.977C285.25 407.977 284.56 410.02 284.37 412.177C284.21 413.978 284.39 415.9 284.39 415.9C284.39 415.9 285.13 416.112 285.53 416.233C285.53 416.225 286.08 416.392 288.01 417.133Z" fill="#DBDBDB"/>
</g>
<path d="M130.3 228.405C130.3 228.405 106.11 259.681 151.36 288.308L155.22 293.878L151.36 302.36C151.36 302.36 148.96 303.072 148.5 304.093L175.17 378.692L230.59 376.883L257.87 303.549C257.87 303.549 256.62 301.702 254.25 301.18L250.45 292.22L254.24 288.27C254.24 288.27 296.24 269.117 277.85 229.827C277.85 229.827 275.69 211.469 264.51 209.297C264.51 209.297 251.35 193.111 242.34 200.807C242.34 200.807 231.71 189.751 220.35 195.479C220.35 195.479 209.9 185.808 200.71 195.676C200.71 195.676 190.44 187.185 177.45 197.061C177.45 197.061 167 192.127 157.81 203.38C157.81 203.372 137.39 203.092 130.3 228.405Z" fill="#C3F53C" stroke="black" stroke-width="0.383955" stroke-miterlimit="10" stroke-linecap="round" stroke-linejoin="round"/>
<path d="M203.15 417.929C190.01 417.929 179.35 420.154 179.35 422.893V446.094H226.95V422.893C226.94 420.154 216.29 417.929 203.15 417.929Z" fill="#C3F53C" stroke="black" stroke-width="0.383955" stroke-miterlimit="10" stroke-linecap="round" stroke-linejoin="round"/>
<path d="M203.15 451.065C216.29 451.065 226.94 448.842 226.94 446.101C226.94 443.359 216.29 441.136 203.15 441.136C190.01 441.136 179.35 443.359 179.35 446.101C179.35 448.842 190.01 451.065 203.15 451.065Z" fill="#A1B432" stroke="black" stroke-width="0.383955" stroke-miterlimit="10" stroke-linecap="round" stroke-linejoin="round"/>
<path d="M203.15 448.463C213.02 448.463 221.03 447.528 221.03 446.374C221.03 445.221 213.02 444.285 203.15 444.285C193.27 444.285 185.27 445.221 185.27 446.374C185.27 447.528 193.27 448.463 203.15 448.463Z" fill="#7F9126" stroke="black" stroke-width="0.383955" stroke-miterlimit="10" stroke-linecap="round" stroke-linejoin="round"/>
<path d="M179.35 439.806C179.35 437.059 190 434.842 203.14 434.842C204.28 434.842 205.41 434.857 206.5 434.887C206.5 434.887 207.69 434.827 207.9 434.092V426.941C207.9 426.941 207.81 425.837 206.5 425.806C205.4 425.784 204.28 425.761 203.14 425.761C190 425.761 179.35 427.986 179.35 430.725V439.806Z" fill="#04C604" stroke="black" stroke-width="0.383955" stroke-miterlimit="10" stroke-linecap="round" stroke-linejoin="round"/>
<path d="M254.3 288.27C254.3 283.283 231.25 279.235 202.82 279.235C174.4 279.235 151.35 283.276 151.35 288.27V302.361C151.35 302.361 152.58 302.012 153.17 302.065L152.55 299.742C152.55 299.742 154.36 297.131 162.53 298.161L161.87 296.413C161.87 296.413 168.92 293.84 175.58 295.27C175.58 295.27 183.16 291.834 193.73 293.983C193.73 293.983 202.61 290.691 212.67 293.983C212.67 293.983 226.12 291.555 230.3 295.845C230.3 295.845 241.79 293.983 244.66 298.13C244.66 298.13 250.41 298.592 253.92 300.385L254.25 301.172L254.3 288.27Z" fill="#FFAA05" stroke="black" stroke-width="0.383955" stroke-miterlimit="10" stroke-linecap="round" stroke-linejoin="round"/>
<path d="M177.48 376.966C177.48 376.966 175.21 377.126 175.16 378.684C175.16 378.684 175.69 379.32 176.58 379.721C176.69 379.827 176.87 379.978 177.1 380.13C178.42 381.023 179.82 380.939 180.42 380.893C180.75 380.871 181.22 380.811 181.78 380.636C182.3 380.849 182.87 381.053 183.49 381.234C184.51 381.53 185.85 381.817 187.13 381.787C187.13 381.787 191.38 383.573 195.74 382.188C195.74 382.188 200.36 384.087 204.98 382.415C204.98 382.415 210.33 384.201 214.01 381.84C214.01 381.84 223.4 382.892 222.41 380.023C222.41 380.023 226.66 380.342 227.81 378.964C227.81 378.964 230.8 378.328 230.58 376.868C230.58 376.868 229.95 375.672 228.55 375.672C228.55 375.672 228.3 374.772 222.79 374.772C222.79 374.772 220.48 373.061 214.8 373.418C214.8 373.418 211.51 372.063 206.57 372.517C206.57 372.517 202.28 371.162 197.1 372.426C197.1 372.426 192.9 371.344 189.19 372.971C189.19 372.971 185.32 372.252 181.86 374.598C181.86 374.606 177.31 375.332 177.48 376.966Z" fill="#7F9126" stroke="black" stroke-width="0.383955" stroke-miterlimit="10" stroke-linecap="round" stroke-linejoin="round"/>
<path d="M153.18 302.065L177.49 376.966" stroke="black" stroke-width="0.383955" stroke-miterlimit="10" stroke-linecap="round" stroke-linejoin="round"/>
<path d="M181.86 374.606L162.54 298.168" stroke="black" stroke-width="0.383955" stroke-miterlimit="10" stroke-linecap="round" stroke-linejoin="round"/>
<path d="M197.1 372.442L193.74 293.985" stroke="black" stroke-width="0.383955" stroke-miterlimit="10" stroke-linecap="round" stroke-linejoin="round"/>
<path d="M212.67 293.985L206.57 372.533" stroke="black" stroke-width="0.383955" stroke-miterlimit="10" stroke-linecap="round" stroke-linejoin="round"/>
<path d="M230.3 295.846L214.8 373.433L210.4 417.929" stroke="black" stroke-width="0.383955" stroke-miterlimit="10" stroke-linecap="round" stroke-linejoin="round"/>
<path d="M244.66 298.13L222.79 374.787" stroke="black" stroke-width="0.383955" stroke-miterlimit="10" stroke-linecap="round" stroke-linejoin="round"/>
<path d="M228.56 375.687L254.25 301.179" stroke="black" stroke-width="0.383955" stroke-miterlimit="10" stroke-linecap="round" stroke-linejoin="round"/>
<path d="M175.16 378.684L184.79 419.737" stroke="black" stroke-width="0.383955" stroke-miterlimit="10" stroke-linecap="round" stroke-linejoin="round"/>
<path d="M195.42 417.928L189.19 372.978L175.58 295.269" stroke="black" stroke-width="0.383955" stroke-miterlimit="10" stroke-linecap="round" stroke-linejoin="round"/>
<path d="M222.03 419.737L230.59 376.883" stroke="black" stroke-width="0.383955" stroke-miterlimit="10" stroke-linecap="round" stroke-linejoin="round"/>
<path d="M130.31 228.405C130.31 228.405 122.74 256.268 159.72 283.336" stroke="black" stroke-width="0.383955" stroke-miterlimit="10" stroke-linecap="round" stroke-linejoin="round"/>
<path d="M157.82 203.374C157.82 203.374 129.89 229.238 173.66 280.825" stroke="black" stroke-width="0.383955" stroke-miterlimit="10" stroke-linecap="round" stroke-linejoin="round"/>
<path d="M177.47 197.054C177.47 197.054 150.57 213.066 188.78 279.234" stroke="black" stroke-width="0.383955" stroke-miterlimit="10" stroke-linecap="round" stroke-linejoin="round"/>
<path d="M200.71 195.676C200.71 195.676 182.47 227.028 202.83 279.242" stroke="black" stroke-width="0.383955" stroke-miterlimit="10" stroke-linecap="round" stroke-linejoin="round"/>
<path d="M220.36 195.479C220.36 195.479 235.59 227.209 215.46 279.242" stroke="black" stroke-width="0.383955" stroke-miterlimit="10" stroke-linecap="round" stroke-linejoin="round"/>
<path d="M242.35 200.808C242.35 200.808 267.02 231.001 228.56 280.446" stroke="black" stroke-width="0.383955" stroke-miterlimit="10" stroke-linecap="round" stroke-linejoin="round"/>
<path d="M264.51 209.297C264.51 209.297 279.88 237.553 243.06 282.639" stroke="black" stroke-width="0.383955" stroke-miterlimit="10" stroke-linecap="round" stroke-linejoin="round"/>
<path d="M277.85 229.827C277.85 229.827 281.73 260.241 250.74 284.955" stroke="black" stroke-width="0.383955" stroke-miterlimit="10" stroke-linecap="round" stroke-linejoin="round"/>
<path d="M186.62 282.549C178.07 283.048 170.52 283.926 164.62 285.069V288.573C170.52 287.422 178.07 286.544 186.62 286.053V282.549Z" stroke="black" stroke-width="0.383955" stroke-miterlimit="10" stroke-linecap="round" stroke-linejoin="round"/>
<path d="M242.09 288.793C237.93 287.929 232.88 287.211 227.17 286.674" stroke="black" stroke-width="0.383955" stroke-miterlimit="10" stroke-linecap="round" stroke-linejoin="round"/>
<path d="M186.62 287.482C178.08 287.974 170.53 288.852 164.62 290.002V293.089C170.53 291.947 178.08 291.069 186.62 290.569V287.482Z" stroke="black" stroke-width="0.383955" stroke-miterlimit="10" stroke-linecap="round" stroke-linejoin="round"/>
<path d="M242.09 293.317C237.94 292.455 232.87 291.736 227.18 291.19" stroke="black" stroke-width="0.383955" stroke-miterlimit="10" stroke-linecap="round" stroke-linejoin="round"/>
<path d="M193.75 291.289C194.67 291.289 195.42 290.473 195.42 289.466C195.42 288.458 194.67 287.642 193.75 287.642C192.83 287.642 192.09 288.458 192.09 289.466C192.09 290.473 192.83 291.289 193.75 291.289Z" stroke="black" stroke-width="0.383955" stroke-miterlimit="10" stroke-linecap="round" stroke-linejoin="round"/>
<path d="M198.76 285.092C199.68 285.092 200.43 284.275 200.43 283.268C200.43 282.26 199.68 281.444 198.76 281.444C197.84 281.444 197.1 282.26 197.1 283.268C197.1 284.275 197.84 285.092 198.76 285.092Z" stroke="black" stroke-width="0.383955" stroke-miterlimit="10" stroke-linecap="round" stroke-linejoin="round"/>
<path d="M202.3 291.797C203.22 291.797 203.97 290.98 203.97 289.973C203.97 288.965 203.22 288.149 202.3 288.149C201.38 288.149 200.64 288.965 200.64 289.973C200.64 290.98 201.38 291.797 202.3 291.797Z" stroke="black" stroke-width="0.383955" stroke-miterlimit="10" stroke-linecap="round" stroke-linejoin="round"/>
<path d="M214.34 284.963C215.26 284.963 216.01 284.147 216.01 283.14C216.01 282.133 215.26 281.316 214.34 281.316C213.42 281.316 212.68 282.133 212.68 283.14C212.68 284.147 213.42 284.963 214.34 284.963Z" stroke="black" stroke-width="0.383955" stroke-miterlimit="10" stroke-linecap="round" stroke-linejoin="round"/>
<path d="M215.46 290.933C216.38 290.933 217.12 290.117 217.12 289.11C217.12 288.103 216.38 287.286 215.46 287.286C214.54 287.286 213.79 288.103 213.79 289.11C213.79 290.117 214.54 290.933 215.46 290.933Z" stroke="black" stroke-width="0.383955" stroke-miterlimit="10" stroke-linecap="round" stroke-linejoin="round"/>
<path d="M224.86 287.066C225.19 287.066 225.46 286.771 225.46 286.408C225.46 286.045 225.19 285.75 224.86 285.75C224.53 285.75 224.26 286.045 224.26 286.408C224.26 286.771 224.53 287.066 224.86 287.066Z" stroke="black" stroke-width="0.383955" stroke-miterlimit="10" stroke-linecap="round" stroke-linejoin="round"/>
<path d="M224.86 291.599C225.19 291.599 225.46 291.304 225.46 290.941C225.46 290.577 225.19 290.282 224.86 290.282C224.53 290.282 224.26 290.577 224.26 290.941C224.26 291.304 224.53 291.599 224.86 291.599Z" stroke="black" stroke-width="0.383955" stroke-miterlimit="10" stroke-linecap="round" stroke-linejoin="round"/>
<path d="M157.51 297.056C159.29 297.056 160.74 294.769 160.74 291.948C160.74 289.127 159.29 286.84 157.51 286.84C155.73 286.84 154.29 289.127 154.29 291.948C154.29 294.769 155.73 297.056 157.51 297.056Z" stroke="black" stroke-width="0.383955" stroke-miterlimit="10" stroke-linecap="round" stroke-linejoin="round"/>
<path d="M153.26 295.269L151.36 295.609" stroke="black" stroke-width="0.383955" stroke-miterlimit="10" stroke-linecap="round" stroke-linejoin="round"/>
<path d="M158.66 287.172L157.51 291.947H160.73" stroke="black" stroke-width="0.383955" stroke-miterlimit="10" stroke-linecap="round" stroke-linejoin="round"/>
<path d="M194.9 288.148L197.62 284.599" stroke="black" stroke-width="0.383955" stroke-miterlimit="10" stroke-linecap="round" stroke-linejoin="round"/>
<path d="M199.62 284.834L202.31 288.149L212.94 284.13" stroke="black" stroke-width="0.383955" stroke-miterlimit="10" stroke-linecap="round" stroke-linejoin="round"/>
<path d="M214.71 287.483L210.74 284.963" stroke="black" stroke-width="0.383955" stroke-miterlimit="10" stroke-linecap="round" stroke-linejoin="round"/>
<path d="M245.03 292.258L248.32 288.793L251.99 295.845L253.62 293.984L254.3 294.369" stroke="black" stroke-width="0.383955" stroke-miterlimit="10" stroke-linecap="round" stroke-linejoin="round"/>
<g style="mix-blend-mode:multiply">
<path d="M280.51 236.629C279.67 234.004 278.73 231.855 277.95 230.25C277.61 227.488 277.03 225.218 276.52 223.561C275.79 221.192 275.11 218.983 273.52 216.584C272.72 215.358 271.02 213.087 271.02 213.087C271.02 213.087 274.53 226.142 272.63 239.104C271.62 245.93 269.31 251.5 267.82 255.041C263.67 264.946 257.68 273.785 250.24 281.02C249.61 280.785 248.93 280.551 248.23 280.339C247.76 280.194 247.3 280.066 246.85 279.952C249.42 276.797 252.11 273.066 254.68 268.7C260.61 258.658 263.79 248.98 265.57 241.51C261.66 250.13 256.49 259.657 249.64 269.343C247.28 272.68 244.9 275.768 242.55 278.636C241.11 278.25 239.47 277.901 237.65 277.674C235.53 277.41 233.6 277.365 231.93 277.432C234.33 274.383 237 270.508 239.52 265.756C242.37 260.398 244.25 255.389 245.52 251.242C243.75 255.336 241.01 260.603 236.82 266.006C233.14 270.758 229.39 274.247 226.31 276.721C225.19 276.419 223.93 276.154 222.54 275.965C220.86 275.738 219.33 275.677 217.99 275.7C220.01 269.6 221.15 264.576 221.84 260.974C222.41 257.992 223.54 251.386 223.55 251.386C220.52 261.745 216.6 269.873 216.6 269.873C215.51 272.128 214.54 273.884 213.97 274.897C212.59 275.366 210.37 275.889 207.73 275.473C206.69 275.306 205.78 275.034 205.02 274.731C200.6 265.628 198.25 259.218 196.9 254.889C196.52 253.663 194.12 245.846 194.11 245.786C194.11 245.786 194.5 255.041 196.38 263.282C196.96 265.825 198 269.699 199.96 274.33C198.45 274.118 196.77 273.966 194.96 273.922C192.71 273.869 190.65 273.989 188.83 274.201C182.2 262.782 178.47 252.408 176.29 244.923C172.68 232.482 169.3 220.307 173.29 206.769C174.54 202.531 176.19 199.247 177.46 197.045C176.72 197.56 175.65 198.384 174.51 199.573C168.75 205.604 168.03 214.117 167.67 219.081C167.11 226.974 168.4 233.277 169.55 237.894C171.67 246.46 175.84 259.612 184.61 274.92C183.9 275.117 183.16 275.299 182.4 275.465C179.38 276.131 176.54 276.457 173.95 276.562C167.27 268.76 161.11 260.323 156.69 250.75C152.63 241.949 148.55 230.78 151.55 219.006C153.75 210.378 159.81 201.949 159.44 201.707C159.27 201.593 157.82 203.371 157.82 203.371C157.82 203.371 154.33 207.14 154.21 207.261C151.94 209.713 148.57 217.265 148.17 227.405C147.48 244.666 155.85 258.151 160.3 265.333C163.65 270.728 166.97 274.769 169.34 277.425C166.8 277.955 164.28 278.567 161.77 279.264C154.21 274.557 147.54 268.14 142.4 260.436C138.4 254.428 130.36 242.229 132.56 229.615C133.07 226.693 134.8 219.883 138 215.086C138 215.086 138.23 214.73 141.54 209.834C141.54 209.834 139.16 212.066 138.31 212.914C135.23 216.009 133.6 219.709 132.43 222.38C131.79 223.841 130.99 225.877 130.31 228.404C129.42 229.645 128.23 231.469 127.12 233.844C126.94 234.231 123.52 241.783 123.79 250.365C124.35 268.163 140.48 280.482 145.77 284.516C148.06 286.264 150.04 287.52 151.36 288.307C151.36 288.867 151.36 289.419 151.36 289.979C164.76 286.672 182.15 283.751 202.52 283.82C223.24 283.88 240.88 287.005 254.39 290.486C254.35 289.745 254.3 289.003 254.25 288.269C256.2 287.278 258.71 285.878 261.51 283.971C263.44 282.654 265.96 280.921 268.81 278.235C270.46 276.669 276.1 271.114 279.55 263.29C280.59 260.936 281.12 259.097 281.3 258.424C281.48 257.795 282.21 255.033 282.46 251.235C282.69 247.633 282.37 244.863 282.24 243.879C281.81 240.724 281.09 238.431 280.51 236.629ZM139.99 275.17C136.49 271.696 133.96 268.761 131.21 264.28C128.43 259.748 126.75 255.033 127.05 249.502C127.24 246.073 128.07 242.714 129.18 239.483C129.36 241.42 129.73 244.189 130.58 247.398C133.04 256.751 137.64 262.805 140.99 267.095C143.94 270.902 148.73 276.207 155.79 281.027C155.02 281.224 154.14 281.512 153.2 281.928C152.03 282.457 151.05 283.055 150.28 283.615C147.65 281.852 143.97 279.112 139.99 275.17ZM271.26 269.275C266.93 275.034 261.3 278.439 261.3 278.439C259.32 279.635 257.57 280.406 256.28 280.898C260.15 277.743 266.53 271.704 271.64 261.92C276.75 252.12 278.26 243.017 278.77 237.764C279.6 251.318 276.1 262.828 271.26 269.275Z" fill="#DBDBDB"/>
</g>
<g style="mix-blend-mode:multiply">
<path d="M162.53 298.168L160.4 297.888C160.4 297.888 178.35 365.003 180.99 374.825C180.54 374.923 180.07 375.045 179.56 375.196C179.11 375.332 178.69 375.484 178.31 375.635C172.09 356.301 165.83 336.981 159.54 317.676C157.51 311.464 155.48 305.259 153.45 299.046C153.45 299.046 152.61 299.326 152.56 299.75C152.53 299.969 152.74 300.045 152.7 300.227C152.61 300.65 151.36 300.749 151.36 300.749C151.36 300.749 151.36 301.308 151.36 302.368C150.26 302.557 149.64 302.958 149.28 303.307C149.12 303.458 148.5 304.101 148.5 304.101L175.17 378.7C175.17 378.7 175.34 378.071 175.38 377.973C175.49 377.632 175.94 377.232 177.49 376.982C177.51 376.762 177.57 376.445 177.77 376.142C178.1 375.627 178.61 375.461 179.56 375.204C180.45 374.961 181.23 374.765 181.86 374.621C179.35 364.67 162.53 298.168 162.53 298.168Z" fill="#DBDBDB"/>
</g>
<g style="mix-blend-mode:multiply">
<path d="M254.25 301.18C254.14 300.915 254.03 300.65 253.92 300.393C245.06 325.304 236.2 350.208 227.33 375.12C227.47 375.112 227.68 375.112 227.92 375.211C228.26 375.339 228.47 375.582 228.55 375.696C228.75 375.696 229.01 375.718 229.3 375.824C230.02 376.081 230.43 376.649 230.58 376.891C239.67 352.449 248.77 327.999 257.86 303.556C257.46 303.026 256.74 302.247 255.65 301.695C255.14 301.422 254.66 301.271 254.25 301.18Z" fill="#DBDBDB"/>
</g>
<g style="mix-blend-mode:multiply">
<path d="M244.66 298.13C244.66 298.13 225.9 363.89 222.79 374.787C222.82 374.787 223.52 374.803 223.55 374.803C223.96 374.81 224.31 374.818 224.31 374.818L246.89 298.41C246.98 298.13 244.66 298.13 244.66 298.13Z" fill="#DBDBDB"/>
</g>
<g style="mix-blend-mode:multiply">
<path d="M179.36 422.469L179.35 446.102C179.35 446.102 179.62 445.368 179.7 445.171C179.7 445.171 180.04 444.376 182.84 443.514L182.59 420.395C182.59 420.395 181.58 420.592 180.75 421.137C180.62 421.22 180.53 421.288 179.36 422.469Z" fill="#DBDBDB"/>
</g>
<g style="mix-blend-mode:multiply">
<path d="M226.94 422.9C226.94 422.9 226.79 422.446 226.75 422.34C226.43 421.515 225.17 421.061 225.17 421.061L225.37 444.278C225.37 444.278 225.85 444.58 226.02 444.694C226.28 444.868 226.62 445.171 226.99 445.708C226.96 430.854 226.94 422.9 226.94 422.9Z" fill="#DBDBDB"/>
</g>
<path d="M282.02 263.23C282.02 263.23 279.79 250.986 266.8 255.004C253.81 259.023 254.01 268.701 254.01 268.701C254.01 268.701 240.21 266.355 237.78 274.808C237.78 274.808 232.1 276.367 226.21 276.367C220.33 276.367 221.14 282.814 225 282.587C228.85 282.368 321.38 282.587 321.38 282.587C321.38 282.587 328.9 282.368 327.67 279.477C326.45 276.586 320.97 274.588 317.32 275.473C317.32 275.473 316.51 272.916 313.66 272.303C313.66 272.303 318.13 263.283 307.58 259.265C297.03 255.246 287.69 262.132 286.47 264.577C286.49 264.585 285.87 262.549 282.02 263.23Z" fill="white" stroke="black" stroke-width="0.383955" stroke-miterlimit="10" stroke-linecap="round" stroke-linejoin="round"/>
<path d="M216.12 279.757C216.12 279.757 212.34 273.627 202.88 279.151C202.88 279.151 192.88 276.995 190.12 280.619C190.12 280.619 188.78 282.602 191.23 283.124H217.22C217.22 283.124 219.9 282.088 218.87 280.619C217.85 279.159 216.12 279.757 216.12 279.757Z" fill="white" stroke="black" stroke-width="0.383955" stroke-miterlimit="10" stroke-linecap="round" stroke-linejoin="round"/>
<path d="M145.22 385.36C145.6 386.608 145.22 444.884 145.22 444.884" stroke="black" stroke-width="0.383955" stroke-miterlimit="10" stroke-linecap="round" stroke-linejoin="round"/>
<path d="M136.49 451.95V501.902" stroke="black" stroke-width="0.383955" stroke-miterlimit="10" stroke-linecap="round" stroke-linejoin="round"/>
<path d="M147.12 460.274V499.405" stroke="black" stroke-width="0.383955" stroke-miterlimit="10" stroke-linecap="round" stroke-linejoin="round"/>
<path d="M181.7 415.122V462.773" stroke="black" stroke-width="0.383955" stroke-miterlimit="10" stroke-linecap="round" stroke-linejoin="round"/>
<path d="M187.02 451.95V491.793" stroke="black" stroke-width="0.383955" stroke-miterlimit="10" stroke-linecap="round" stroke-linejoin="round"/>
<path d="M221.95 467.275V510.643" stroke="black" stroke-width="0.383955" stroke-miterlimit="10" stroke-linecap="round" stroke-linejoin="round"/>
<path d="M227.68 479.836V499.405" stroke="black" stroke-width="0.383955" stroke-miterlimit="10" stroke-linecap="round" stroke-linejoin="round"/>
<path d="M234.9 458.611V507.314" stroke="black" stroke-width="0.383955" stroke-miterlimit="10" stroke-linecap="round" stroke-linejoin="round"/>
<path d="M255.03 393.6V486.912" stroke="black" stroke-width="0.383955" stroke-miterlimit="10" stroke-linecap="round" stroke-linejoin="round"/>
<g style="mix-blend-mode:multiply">
<path d="M282.01 263.23C281.2 260.763 281.1 260.528 281.1 260.528C280.32 258.811 279.19 257.517 279.19 257.517C279.19 257.517 279.91 260.49 279.97 261.77C280.03 263.17 279.39 264.683 279.39 264.683C280.74 264.01 280.8 263.987 280.86 263.956C282.17 263.351 283.15 263.17 283.13 263.101C283.12 263.033 282.01 263.23 282.01 263.23Z" fill="#E3EEFE"/>
</g>
<g style="mix-blend-mode:multiply">
<path d="M317.32 275.474C317.09 274.907 316.33 273.211 314.66 272.545C314.31 272.409 313.98 272.334 313.67 272.303C314.03 271.584 314.94 269.496 314.54 266.832C314.29 265.22 313.65 264.002 313.15 263.245C312.22 261.838 311.12 261.081 310.52 260.725C310.65 262.549 310.67 264.917 310.26 267.641C309.93 269.829 309.41 271.683 308.89 273.158C309.62 273.491 310.16 273.854 310.5 274.119C310.5 274.119 311.22 274.672 312.62 276.238C312.62 276.238 314.96 275.898 319.4 275.262C318.7 275.33 318.01 275.406 317.32 275.474Z" fill="#E3EEFE"/>
</g>
<g style="mix-blend-mode:multiply">
<path d="M324.58 276.661C324.58 276.661 324.45 278.069 324.14 278.856C323.9 279.461 323.34 280.203 321.94 280.756C288.66 280.672 255.39 280.589 222.11 280.513C222.2 280.808 222.46 281.519 223.12 282.049C224.17 282.912 225.4 282.61 225.58 282.564C257.57 282.579 289.56 282.594 321.55 282.61C322.46 282.602 323.8 282.48 325.32 281.951C326.62 281.497 327.58 281.164 327.77 280.354C328.01 279.333 326.91 278.009 326.04 277.441C325.57 277.13 324.58 276.661 324.58 276.661Z" fill="#E3EEFE"/>
</g>
<g style="mix-blend-mode:multiply">
<path d="M218.76 282.118C218.76 282.118 194.16 282.013 189.78 281.99C189.8 282.118 189.9 282.497 190.22 282.784C190.64 283.17 191.13 283.132 191.23 283.125C199.89 283.125 208.56 283.125 217.22 283.125C218.16 282.512 218.76 282.118 218.76 282.118Z" fill="#E3EEFE"/>
</g>
<path d="M196.05 448.227L196.43 454.894L205.03 451.156L204.48 444.535L196.05 448.227Z" fill="#04C604" stroke="black" stroke-width="0.383955" stroke-miterlimit="10" stroke-linecap="round" stroke-linejoin="round"/>
<path d="M196.43 454.894L200.38 461.863L208.76 458.375L205.03 451.156L196.43 454.894Z" fill="#039503" stroke="black" stroke-width="0.383955" stroke-miterlimit="10" stroke-linecap="round" stroke-linejoin="round"/>
<path d="M204.47 444.535L208.31 451.928L208.76 458.375L205.03 451.156L204.47 444.535Z" fill="#04C604" stroke="black" stroke-width="0.383955" stroke-miterlimit="10" stroke-linecap="round" stroke-linejoin="round"/>
<path d="M187.15 478.021L178.71 482.977L184.04 492.286L192.53 487.162L187.15 478.021Z" fill="#04C604" stroke="black" stroke-width="0.383955" stroke-miterlimit="10" stroke-linecap="round" stroke-linejoin="round"/>
<path d="M178.71 482.977L177.04 486.58L182.25 495.555L184.04 492.286L178.71 482.977Z" fill="#04C604" stroke="black" stroke-width="0.383955" stroke-miterlimit="10" stroke-linecap="round" stroke-linejoin="round"/>
<path d="M182.25 495.554L190.37 490.568L192.54 487.162L184.05 492.285L182.25 495.554Z" fill="#039503" stroke="black" stroke-width="0.383955" stroke-miterlimit="10" stroke-linecap="round" stroke-linejoin="round"/>
<path d="M208.75 476.453L216.77 471.875L221.92 477.46L213.77 482.204L208.75 476.453Z" fill="#04C604" stroke="black" stroke-width="0.383955" stroke-miterlimit="10" stroke-linecap="round" stroke-linejoin="round"/>
<path d="M208.75 476.452L210.09 483.74L214.96 489.619L213.77 482.204L208.75 476.452Z" fill="#04C604" stroke="black" stroke-width="0.383955" stroke-miterlimit="10" stroke-linecap="round" stroke-linejoin="round"/>
<path d="M213.77 482.205L221.92 477.46L223.12 484.876L214.97 489.621L213.77 482.205Z" fill="#039503" stroke="black" stroke-width="0.383955" stroke-miterlimit="10" stroke-linecap="round" stroke-linejoin="round"/>
<path d="M198.58 492.369L194.56 497.379L200.75 501.616L204.7 496.44L198.58 492.369Z" fill="#04C604" stroke="black" stroke-width="0.383955" stroke-miterlimit="10" stroke-linecap="round" stroke-linejoin="round"/>
<path d="M194.56 497.378L193.7 502.502L199.8 506.437L200.76 501.616L194.56 497.378Z" fill="#04C604" stroke="black" stroke-width="0.383955" stroke-miterlimit="10" stroke-linecap="round" stroke-linejoin="round"/>
<path d="M204.7 496.439L203.91 501.252L199.79 506.436L200.75 501.615L204.7 496.439Z" fill="#039503" stroke="black" stroke-width="0.383955" stroke-miterlimit="10" stroke-linecap="round" stroke-linejoin="round"/>
<path d="M189.35 530.35L184.04 536.888L188.92 535.118L194.3 528.526L189.35 530.35Z" fill="#04C604" stroke="black" stroke-width="0.383955" stroke-miterlimit="10" stroke-linecap="round" stroke-linejoin="round"/>
<path d="M184.04 536.888L189.68 544.334L194.66 542.646L188.92 535.117L184.04 536.888Z" fill="#039503" stroke="black" stroke-width="0.383955" stroke-miterlimit="10" stroke-linecap="round" stroke-linejoin="round"/>
<path d="M194.3 528.525L200.07 535.949L194.66 542.646L188.92 535.116L194.3 528.525Z" fill="#04C604" stroke="black" stroke-width="0.383955" stroke-miterlimit="10" stroke-linecap="round" stroke-linejoin="round"/>
<path d="M202.77 521.374L210.6 515.01L216.88 523.266L209.06 529.706L202.77 521.374Z" fill="#FFAA08" stroke="black" stroke-width="0.383955" stroke-miterlimit="10" stroke-linecap="round" stroke-linejoin="round"/>
<path d="M202.77 521.376L203.96 518.039L211.41 511.901L210.6 515.012L202.77 521.376Z" fill="#FFCC6B" stroke="black" stroke-width="0.383955" stroke-miterlimit="10" stroke-linecap="round" stroke-linejoin="round"/>
<path d="M211.41 511.899L217.41 519.83L216.87 523.266L210.6 515.01L211.41 511.899Z" fill="#FFCC6B" stroke="black" stroke-width="0.383955" stroke-miterlimit="10" stroke-linecap="round" stroke-linejoin="round"/>
</svg>